<svg width="824" height="824" viewBox="0 0 824 824" fill="none" xmlns="http://www.w3.org/2000/svg">
<path fill-rule="evenodd" clip-rule="evenodd" d="M824 256.627C824 246.845 824.004 237.062 823.944 227.279C823.895 219.038 823.8 210.799 823.576 202.562C823.092 184.609 822.033 166.502 818.84 148.749C815.602 130.741 810.314 113.98 801.981 97.6166C793.789 81.5337 783.088 66.8168 770.32 54.0578C757.555 41.2989 742.834 30.6049 726.746 22.4179C710.366 14.0829 693.587 8.79697 675.558 5.55998C657.803 2.37199 639.691 1.315 621.738 0.829997C613.495 0.606998 605.253 0.512998 597.008 0.461998C587.22 0.401999 577.432 0.406999 567.644 0.406999L453.997 0H368.997L257.361 0.406999C247.554 0.406999 237.747 0.401999 227.94 0.461998C219.678 0.512998 211.42 0.606998 203.161 0.829997C185.167 1.315 167.014 2.37299 149.217 5.56498C131.164 8.80097 114.36 14.0849 97.9583 22.4139C81.8354 30.6019 67.0825 41.2969 54.2906 54.0578C41.5007 66.8158 30.7798 81.5297 22.5728 97.6096C14.2169 113.981 8.91893 130.752 5.67296 148.77C2.47698 166.516 1.41799 184.617 0.930993 202.562C0.708995 210.8 0.612995 219.039 0.562996 227.279C0.502996 237.063 0 249.216 0 258.999L0.00299998 369.089L0 454.998L0.507996 567.427C0.507996 577.223 0.503996 587.019 0.562996 596.815C0.612995 605.067 0.708995 613.317 0.931993 621.566C1.41799 639.542 2.47898 657.675 5.67796 675.452C8.92293 693.484 14.2199 710.269 22.5688 726.653C30.7768 742.759 41.4997 757.495 54.2906 770.272C67.0815 783.049 81.8304 793.757 97.9503 801.956C114.362 810.302 131.174 815.595 149.238 818.836C167.027 822.029 185.174 823.088 203.161 823.573C211.42 823.796 219.679 823.891 227.941 823.941C237.748 824.001 247.554 823.997 257.361 823.997L370.006 824H455.217L567.644 823.996C577.432 823.996 587.22 824.001 597.008 823.941C605.253 823.891 613.495 823.796 621.738 823.573C639.698 823.087 657.816 822.027 675.579 818.832C693.597 815.591 710.368 810.3 726.739 801.959C742.831 793.761 757.554 783.051 770.32 770.272C783.086 757.497 793.786 742.763 801.978 726.66C810.316 710.268 815.604 693.475 818.844 675.431C822.034 657.661 823.092 639.535 823.577 621.566C823.8 613.316 823.895 605.066 823.944 596.815C824.005 587.019 824 577.223 824 567.427C824 567.427 823.994 456.983 823.994 454.998V368.999C823.994 367.533 824 256.627 824 256.627" fill="black"/>
<mask id="mask0_45_161" style="mask-type:luminance" maskUnits="userSpaceOnUse" x="0" y="0" width="824" height="824">
<path fill-rule="evenodd" clip-rule="evenodd" d="M824 256.627C824 246.845 824.004 237.062 823.944 227.279C823.895 219.038 823.8 210.799 823.576 202.562C823.092 184.609 822.033 166.502 818.84 148.749C815.602 130.741 810.314 113.98 801.981 97.6166C793.789 81.5337 783.088 66.8168 770.32 54.0578C757.555 41.2989 742.834 30.6049 726.746 22.4179C710.366 14.0829 693.587 8.79697 675.558 5.55998C657.803 2.37199 639.691 1.315 621.738 0.829997C613.495 0.606998 605.253 0.512998 597.008 0.461998C587.22 0.401999 577.432 0.406999 567.644 0.406999L453.997 0H368.997L257.361 0.406999C247.554 0.406999 237.747 0.401999 227.94 0.461998C219.678 0.512998 211.42 0.606998 203.161 0.829997C185.167 1.315 167.014 2.37299 149.217 5.56498C131.164 8.80097 114.36 14.0849 97.9583 22.4139C81.8354 30.6019 67.0825 41.2969 54.2906 54.0578C41.5007 66.8158 30.7798 81.5297 22.5728 97.6096C14.2169 113.981 8.91893 130.752 5.67296 148.77C2.47698 166.516 1.41799 184.617 0.930993 202.562C0.708995 210.8 0.612995 219.039 0.562996 227.279C0.502996 237.063 0 249.216 0 258.999L0.00299998 369.089L0 454.998L0.507996 567.427C0.507996 577.223 0.503996 587.019 0.562996 596.815C0.612995 605.067 0.708995 613.317 0.931993 621.566C1.41799 639.542 2.47898 657.675 5.67796 675.452C8.92293 693.484 14.2199 710.269 22.5688 726.653C30.7768 742.759 41.4997 757.495 54.2906 770.272C67.0815 783.049 81.8304 793.757 97.9503 801.956C114.362 810.302 131.174 815.595 149.238 818.836C167.027 822.029 185.174 823.088 203.161 823.573C211.42 823.796 219.679 823.891 227.941 823.941C237.748 824.001 247.554 823.997 257.361 823.997L370.006 824H455.217L567.644 823.996C577.432 823.996 587.22 824.001 597.008 823.941C605.253 823.891 613.495 823.796 621.738 823.573C639.698 823.087 657.816 822.027 675.579 818.832C693.597 815.591 710.368 810.3 726.739 801.959C742.831 793.761 757.554 783.051 770.32 770.272C783.086 757.497 793.786 742.763 801.978 726.66C810.316 710.268 815.604 693.475 818.844 675.431C822.034 657.661 823.092 639.535 823.577 621.566C823.8 613.316 823.895 605.066 823.944 596.815C824.005 587.019 824 577.223 824 567.427C824 567.427 823.994 456.983 823.994 454.998V368.999C823.994 367.533 824 256.627 824 256.627" fill="white"/>
</mask>
<g mask="url(#mask0_45_161)">
<line x1="116" y1="4.37114e-08" x2="116" y2="824" stroke="#27272A" stroke-width="2"/>
<line x1="262.25" y1="4.37114e-08" x2="262.25" y2="824" stroke="#27272A" stroke-width="2"/>
<line x1="408.5" y1="4.37114e-08" x2="408.5" y2="824" stroke="#27272A" stroke-width="2"/>
<line x1="554.75" y1="4.37114e-08" x2="554.75" y2="824" stroke="#27272A" stroke-width="2"/>
<line x1="701" y1="4.37114e-08" x2="701" y2="824" stroke="#27272A" stroke-width="2"/>
<line x1="-4.5" y1="703.5" x2="819.5" y2="703.5" stroke="#27272A" stroke-width="2"/>
<line x1="-4.5" y1="557.25" x2="819.5" y2="557.25" stroke="#27272A" stroke-width="2"/>
<line x1="-4.5" y1="411" x2="819.5" y2="411" stroke="#27272A" stroke-width="2"/>
<line x1="-4.5" y1="264.75" x2="819.5" y2="264.75" stroke="#27272A" stroke-width="2"/>
<line x1="-4.5" y1="118.5" x2="819.5" y2="118.5" stroke="#27272A" stroke-width="2"/>
<path fill-rule="evenodd" clip-rule="evenodd" d="M581.38 452C563.309 528.817 494.332 586 412 586C315.902 586 238 508.098 238 412C238 315.902 315.902 238 412 238C494.332 238 563.309 295.183 581.38 372H517V452H581.38ZM662.868 452C643.684 573.276 538.67 666 412 666C271.72 666 158 552.28 158 412C158 271.72 271.72 158 412 158C538.67 158 643.684 250.724 662.868 372H581.38C584.402 384.843 586 398.235 586 412C586 425.765 584.402 439.157 581.38 452H662.868ZM662.868 452H700V372H662.868C664.93 385.03 666 398.39 666 412C666 425.61 664.93 438.97 662.868 452Z" fill="#D9D9D9"/>
</g>
</svg>
