<svg width="23" height="25" viewBox="0 0 23 25" fill="currentColor" xmlns="http://www.w3.org/2000/svg">
<path d="M11.5 21.2391C11.5 21.5153 11.7244 21.7402 12.0003 21.729C18.1195 21.4814 23 16.7142 23 10.8696C23 4.86647 17.8513 0 11.5 0C5.14873 0 0 4.86647 0 10.8696V24.5C0 24.7761 0.223858 25 0.5 25H5.25C5.52614 25 5.75 24.7761 5.75 24.5V10.8696C5.75 7.86802 8.32436 5.43478 11.5 5.43478C14.6756 5.43478 17.25 7.86802 17.25 10.8696C17.25 13.7119 14.9414 16.0447 11.9998 16.2841C11.7246 16.3065 11.5 16.5282 11.5 16.8043V21.2391Z" />
</svg>
