<svg width="40" height="40" viewBox="0 0 40 40" fill="none" xmlns="http://www.w3.org/2000/svg">
<path fill-rule="evenodd" clip-rule="evenodd" d="M12 0C5.37258 0 0 5.37258 0 12V28C0 34.6274 5.37258 40 12 40H28C34.6274 40 40 34.6274 40 28V12C40 5.37258 34.6274 0 28 0H12ZM21.0003 28.729C20.7244 28.7402 20.5 28.5153 20.5 28.2391V23.8043C20.5 23.5282 20.7246 23.3065 20.9998 23.2841C23.9414 23.0447 26.25 20.7119 26.25 17.8696C26.25 14.868 23.6756 12.4348 20.5 12.4348C17.3244 12.4348 14.75 14.868 14.75 17.8696V31.5C14.75 31.7761 14.5261 32 14.25 32H9.5C9.22386 32 9 31.7761 9 31.5V17.8696C9 11.8665 14.1487 7 20.5 7C26.8513 7 32 11.8665 32 17.8696C32 23.7142 27.1195 28.4814 21.0003 28.729Z" fill="black"/>
</svg>
