<svg width="40" height="40" viewBox="0 0 40 40" fill="none" xmlns="http://www.w3.org/2000/svg">
<path fill-rule="evenodd" clip-rule="evenodd" d="M20 40C31.0457 40 40 31.0457 40 20C40 8.9543 31.0457 0 20 0C8.9543 0 0 8.9543 0 20C0 31.0457 8.9543 40 20 40ZM20.9999 28.2484C20.7241 28.2622 20.5 28.037 20.5 27.7609V24.1957C20.5 23.9195 20.7245 23.6983 20.9993 23.6707C23.388 23.4309 25.25 21.4897 25.25 19.1304C25.25 16.6091 23.1234 14.5652 20.5 14.5652C17.8766 14.5652 15.75 16.6091 15.75 19.1304V30.5C15.75 30.7761 15.5261 31 15.25 31H11.5C11.2239 31 11 30.7761 11 30.5V19.1304C11 14.0878 15.2533 10 20.5 10C25.7467 10 30 14.0878 30 19.1304C30 24.0119 26.0142 27.9986 20.9999 28.2484Z" fill="black"/>
</svg>
