<svg width="77" height="25" viewBox="0 0 77 25" fill="none" xmlns="http://www.w3.org/2000/svg">
<path d="M11.5 21.2391C11.5 21.5153 11.7244 21.7402 12.0003 21.729C18.1195 21.4814 23 16.7142 23 10.8696C23 4.86647 17.8513 0 11.5 0C5.14873 0 0 4.86647 0 10.8696V24.5C0 24.7761 0.223858 25 0.5 25H5.25C5.52614 25 5.75 24.7761 5.75 24.5V10.8696C5.75 7.86802 8.32436 5.43478 11.5 5.43478C14.6756 5.43478 17.25 7.86802 17.25 10.8696C17.25 13.7119 14.9414 16.0447 11.9998 16.2841C11.7246 16.3065 11.5 16.5282 11.5 16.8043V21.2391Z" fill="black"/>
<path d="M28.7585 18.1662C28.1321 18.1662 27.576 18.0618 27.0902 17.853C26.6087 17.6399 26.2273 17.3203 25.946 16.8942C25.669 16.4638 25.5305 15.9247 25.5305 15.277C25.5305 14.7315 25.6264 14.2713 25.8182 13.8963C26.0099 13.5213 26.2741 13.2166 26.6108 12.9822C26.9474 12.7479 27.3352 12.571 27.7741 12.4517C28.2131 12.3281 28.6818 12.245 29.1804 12.2024C29.7386 12.1513 30.1882 12.098 30.5291 12.0426C30.87 11.983 31.1172 11.8999 31.2706 11.7933C31.4283 11.6825 31.5071 11.527 31.5071 11.3267V11.2947C31.5071 10.9666 31.3942 10.7131 31.1683 10.5341C30.9425 10.3551 30.6378 10.2656 30.2543 10.2656C29.8409 10.2656 29.5085 10.3551 29.2571 10.5341C29.0502 10.6814 28.9053 10.8748 28.8225 11.1145C28.7909 11.206 28.7073 11.2731 28.6105 11.2696L26.1172 11.1812C25.9985 11.177 25.909 11.0705 25.9328 10.9541C26.0367 10.4454 26.2435 9.98585 26.5533 9.57529C26.9112 9.10228 27.4013 8.73154 28.0234 8.46307C28.6499 8.19034 29.402 8.05398 30.2798 8.05398C30.9062 8.05398 31.4837 8.12855 32.0121 8.2777C32.5405 8.42259 33.0007 8.63566 33.3927 8.91691C33.7848 9.19389 34.0874 9.5348 34.3004 9.93963C34.5177 10.3445 34.6264 10.8068 34.6264 11.3267V17.8C34.6264 17.9105 34.5369 18 34.4264 18H31.8861C31.7756 18 31.6861 17.9105 31.6861 17.8V16.6799C31.6861 16.6535 31.6647 16.6321 31.6383 16.6321V16.6321C31.6205 16.6321 31.6042 16.642 31.5958 16.6576C31.4231 16.9789 31.2039 17.2517 30.9382 17.4759C30.6697 17.706 30.3523 17.8786 29.9858 17.9936C29.6236 18.1087 29.2145 18.1662 28.7585 18.1662ZM29.7237 16.1207C30.0604 16.1207 30.3629 16.0526 30.6314 15.9162C30.9041 15.7798 31.1214 15.5923 31.2834 15.3537C31.4453 15.1108 31.5263 14.8295 31.5263 14.5099V13.9072C31.5263 13.7569 31.3632 13.6544 31.2196 13.6987C31.2132 13.7006 31.2068 13.7026 31.2003 13.7045C31.0767 13.7429 30.9403 13.7791 30.7912 13.8132C30.642 13.8473 30.4886 13.8771 30.331 13.9027C30.1733 13.9283 30.022 13.9517 29.8771 13.973C29.5831 14.0199 29.3317 14.0923 29.1229 14.1903C28.9183 14.2884 28.7606 14.4162 28.6499 14.5739C28.5433 14.7273 28.49 14.9105 28.49 15.1236C28.49 15.4474 28.6051 15.6946 28.8352 15.8651C29.0696 16.0355 29.3658 16.1207 29.7237 16.1207Z" fill="black"/>
<path d="M36.7376 18C36.6272 18 36.5376 17.9105 36.5376 17.8V8.38182C36.5376 8.27136 36.6272 8.18182 36.7376 8.18182H39.3739C39.4843 8.18182 39.5739 8.27136 39.5739 8.38182V9.91352C39.5739 9.94559 39.5999 9.97159 39.6319 9.97159V9.97159C39.658 9.97159 39.6809 9.95407 39.6881 9.92897C39.868 9.3027 40.1559 8.83538 40.5518 8.52699C40.9567 8.20739 41.4275 8.04759 41.9645 8.04759C42.1094 8.04759 42.2585 8.05824 42.4119 8.07955C42.5106 8.09051 42.6048 8.10588 42.6947 8.12565C42.7816 8.14477 42.8402 8.22386 42.8402 8.31284V10.5993C42.8402 10.7365 42.7041 10.8354 42.5696 10.8082C42.4746 10.7889 42.3688 10.7721 42.2521 10.7578C42.0135 10.728 41.8004 10.7131 41.6129 10.7131C41.2422 10.7131 40.9077 10.7962 40.6094 10.9624C40.3153 11.1243 40.0831 11.3523 39.9126 11.6463C39.7464 11.9361 39.6633 12.277 39.6633 12.669V17.8C39.6633 17.9105 39.5738 18 39.4633 18H36.7376Z" fill="black"/>
<path d="M52.6622 10.9693C52.6781 11.0831 52.5888 11.1823 52.474 11.1853L49.9931 11.2516C49.8918 11.2544 49.8066 11.18 49.7763 11.0833C49.7341 10.9481 49.6662 10.8247 49.5726 10.7131C49.4405 10.5511 49.2679 10.4254 49.0549 10.3359C48.8461 10.2422 48.6032 10.1953 48.3262 10.1953C47.9639 10.1953 47.655 10.2678 47.3993 10.4126C47.1479 10.5575 47.0243 10.7536 47.0286 11.0007C47.0243 11.1925 47.101 11.3587 47.2587 11.4993C47.4206 11.6399 47.7083 11.7528 48.1216 11.8381L50.0137 12.196C50.9938 12.3835 51.7225 12.6946 52.1997 13.1293C52.6813 13.5639 52.9242 14.1392 52.9284 14.8551C52.9242 15.5284 52.7239 16.1143 52.3276 16.6129C51.9355 17.1115 51.3986 17.4993 50.7168 17.7763C50.035 18.049 49.2551 18.1854 48.3773 18.1854C46.9753 18.1854 45.8695 17.8977 45.0598 17.3224C44.3154 16.7868 43.8658 16.0836 43.7112 15.213C43.6906 15.097 43.7809 14.9932 43.8986 14.9903L46.5968 14.9233C46.6947 14.9208 46.7783 14.9902 46.8074 15.0837C46.8938 15.3618 47.057 15.5796 47.297 15.7372C47.5826 15.9247 47.9469 16.0185 48.3901 16.0185C48.7907 16.0185 49.1166 15.9439 49.3681 15.7947C49.6195 15.6456 49.7473 15.4474 49.7516 15.2003C49.7473 14.9787 49.6493 14.8018 49.4576 14.6697C49.2658 14.5334 48.9654 14.4268 48.5563 14.3501L46.8432 14.0242C45.8588 13.8452 45.1259 13.5149 44.6443 13.0334C44.1628 12.5476 43.9242 11.9297 43.9284 11.1797C43.9242 10.5234 44.0989 9.96307 44.4526 9.49858C44.8063 9.02983 45.3091 8.67188 45.9611 8.42472C46.6131 8.17756 47.3823 8.05398 48.2686 8.05398C49.5982 8.05398 50.6465 8.3331 51.4135 8.89134C52.1243 9.40468 52.5405 10.0973 52.6622 10.9693Z" fill="black"/>
<path d="M59.0568 18.1854C58.0298 18.1854 57.1435 17.983 56.3977 17.5781C55.6562 17.169 55.0852 16.5874 54.6847 15.8331C54.2883 15.0746 54.0902 14.1733 54.0902 13.1293C54.0902 12.1151 54.2905 11.2287 54.691 10.4702C55.0916 9.70739 55.6562 9.11506 56.3849 8.69318C57.1136 8.26705 57.9723 8.05398 58.9609 8.05398C59.6598 8.05398 60.299 8.16264 60.8785 8.37997C61.4581 8.5973 61.9588 8.91904 62.3807 9.34517C62.8026 9.77131 63.1307 10.2976 63.3651 10.924C63.5994 11.5462 63.7166 12.2599 63.7166 13.0653V13.6452C63.7166 13.7556 63.6271 13.8452 63.5166 13.8452H55.3832C55.2728 13.8452 55.1832 13.7556 55.1832 13.6452V12.2298C55.1832 12.1194 55.2728 12.0298 55.3832 12.0298H60.6057C60.7171 12.0298 60.8082 11.9385 60.796 11.8277C60.7681 11.5761 60.6933 11.3474 60.5717 11.1413C60.4183 10.8814 60.2074 10.679 59.9389 10.5341C59.6747 10.3849 59.37 10.3104 59.0249 10.3104C58.6754 10.3104 58.3622 10.3892 58.0852 10.5469C57.8082 10.7003 57.5888 10.9112 57.4268 11.1797C57.2649 11.4439 57.1797 11.7443 57.1712 12.081V13.9283C57.1712 14.3288 57.25 14.6804 57.4077 14.983C57.5653 15.2813 57.7891 15.5135 58.0788 15.6797C58.3686 15.8459 58.7138 15.929 59.1143 15.929C59.3913 15.929 59.6428 15.8906 59.8686 15.8139C60.0945 15.7372 60.2883 15.6243 60.4503 15.4751C60.5784 15.3572 60.6811 15.2179 60.7586 15.0572C60.7958 14.9801 60.8722 14.9271 60.9578 14.9296L63.4512 15.0018C63.5739 15.0053 63.6648 15.1177 63.6355 15.2368C63.5003 15.7854 63.2546 16.2697 62.8984 16.6896C62.4979 17.1626 61.9716 17.5313 61.3196 17.7955C60.6676 18.0554 59.9133 18.1854 59.0568 18.1854Z" fill="black"/>
<path d="M65.513 18C65.4026 18 65.313 17.9105 65.313 17.8V8.38182C65.313 8.27136 65.4026 8.18182 65.513 8.18182H68.2387C68.3492 8.18182 68.4387 8.27136 68.4387 8.38182V17.8C68.4387 17.9105 68.3492 18 68.2387 18H65.513ZM66.8791 7.03765C66.4402 7.03765 66.063 6.89276 65.7477 6.60299C65.4323 6.30895 65.2747 5.95526 65.2747 5.54191C65.2747 5.13281 65.4323 4.78338 65.7477 4.49361C66.063 4.19958 66.4402 4.05256 66.8791 4.05256C67.3223 4.05256 67.6994 4.19958 68.0105 4.49361C68.3258 4.78338 68.4835 5.13281 68.4835 5.54191C68.4835 5.95526 68.3258 6.30895 68.0105 6.60299C67.6994 6.89276 67.3223 7.03765 66.8791 7.03765Z" fill="black"/>
<path d="M75.7702 8.18182C75.8806 8.18182 75.9702 8.27136 75.9702 8.38182V10.283C75.9702 10.3934 75.8806 10.483 75.7702 10.483H69.9763C69.8658 10.483 69.7763 10.3934 69.7763 10.283V8.38182C69.7763 8.27136 69.8658 8.18182 69.9763 8.18182H75.7702ZM71.0739 6.02955C71.0739 5.91909 71.1634 5.82955 71.2739 5.82955H73.9996C74.11 5.82955 74.1996 5.91909 74.1996 6.02955V14.9126C74.1996 15.1044 74.2294 15.2599 74.2891 15.3793C74.353 15.4943 74.4446 15.5774 74.5639 15.6286C74.6832 15.6754 74.826 15.6989 74.9922 15.6989C75.1115 15.6989 75.2372 15.6882 75.3693 15.6669C75.4064 15.6599 75.441 15.6533 75.4731 15.647C75.5844 15.625 75.6955 15.6953 75.7188 15.8064L76.1109 17.6772C76.1325 17.7798 76.071 17.8817 75.9695 17.9081C75.8445 17.9406 75.6935 17.9777 75.5163 18.0192C75.2479 18.0831 74.9261 18.1236 74.5511 18.1406C73.8182 18.1747 73.1896 18.0895 72.6655 17.8849C72.1456 17.6761 71.7472 17.3523 71.4702 16.9134C71.1974 16.4744 71.0653 15.9226 71.0739 15.2578V6.02955Z" fill="black"/>
</svg>
